name rise30.2954peak35.7071fall66.7804.mot
datacolumns 19
datarows 32
range 20.08493200000000 20.13659500000000
endheader
time	ground_force1_vx	ground_force1_vy	ground_force1_vz	ground_force1_px	ground_force1_py	ground_force1_pz	ground_force2_vx	ground_force2_vy	ground_force2_vz	ground_force2_px	ground_force2_py	ground_force2_pz	ground_torque1_x	ground_torque1_y	ground_torque1_z	ground_torque2_x	ground_torque2_y	ground_torque2_z	
20.08493200000000	-43.12318700000000	815.60098000000005	37.47127800000000	0.07365000000000	0.00000000000000	0.07752500000000	0.00000000000000	0.00000000000000	0.00000000000000	0.00000000000000	0.00000000000000	0.00000000000000	0.00000000000000	12.57272900000000	0.00000000000000	0.00000000000000	0.00000000000000	0.00000000000000	
20.08659800000000	-44.05120500000000	815.35356200000001	37.58411700000000	0.07256000000000	0.00000000000000	0.07748700000000	0.00000000000000	0.00000000000000	0.00000000000000	0.00000000000000	0.00000000000000	0.00000000000000	0.00000000000000	12.57075900000000	0.00000000000000	0.00000000000000	0.00000000000000	0.00000000000000	
20.08825800000000	-44.99976500000000	815.00489000000005	37.68989400000000	0.07146800000000	0.00000000000000	0.07744800000000	0.00000000000000	0.00000000000000	0.00000000000000	0.00000000000000	0.00000000000000	0.00000000000000	0.00000000000000	12.57018500000000	0.00000000000000	0.00000000000000	0.00000000000000	0.00000000000000	
20.08993100000000	-45.96883500000000	814.55081900000005	37.78786600000000	0.07037500000000	0.00000000000000	0.07740900000000	0.00000000000000	0.00000000000000	0.00000000000000	0.00000000000000	0.00000000000000	0.00000000000000	0.00000000000000	12.57107300000000	0.00000000000000	0.00000000000000	0.00000000000000	0.00000000000000	
20.09159400000000	-46.95828800000000	813.98711900000001	37.87728500000000	0.06928200000000	0.00000000000000	0.07736800000000	-0.74116900000000	3.48714500000000	0.79872500000000	0.00000000000000	0.00000000000000	0.00000000000000	0.00000000000000	12.57348000000000	0.00000000000000	0.00000000000000	0.24570000000000	0.00000000000000	
20.09326200000000	-47.96789800000000	813.30948300000000	37.95740200000000	0.06818900000000	0.00000000000000	0.07732600000000	-1.20956400000000	6.83732700000000	1.42357800000000	0.00000000000000	0.00000000000000	0.00000000000000	0.00000000000000	12.57745700000000	0.00000000000000	0.00000000000000	0.44149800000000	0.00000000000000	
20.09494100000000	-48.99733700000000	812.51352999999995	38.02746500000000	0.06709600000000	0.00000000000000	0.07728400000000	-1.74338000000000	10.90044100000000	2.16102400000000	0.00000000000000	0.00000000000000	0.00000000000000	0.00000000000000	12.58304400000000	0.00000000000000	0.00000000000000	0.67334200000000	0.00000000000000	
20.09659200000000	-50.04617200000000	811.59481300000004	38.08672400000000	0.06600400000000	0.00000000000000	0.07724000000000	-2.32733600000000	15.63733400000000	2.99781200000000	0.00000000000000	0.00000000000000	0.00000000000000	0.00000000000000	12.59027100000000	0.00000000000000	0.00000000000000	0.93734400000000	0.00000000000000	
20.09826400000000	-51.11386200000000	810.54882999999995	38.13443600000000	0.06491300000000	0.00000000000000	0.07719500000000	-2.94193700000000	20.97775000000000	3.91491400000000	0.00000000000000	0.00000000000000	0.00000000000000	0.00000000000000	12.59915800000000	0.00000000000000	0.00000000000000	1.22782000000000	0.00000000000000	
20.09992400000000	-52.19975200000000	809.37102900000002	38.16985900000000	0.06382400000000	0.00000000000000	0.07715000000000	-3.56471100000000	26.82563200000000	4.88880100000000	0.28648400000000	0.00000000000000	-0.08919400000000	0.00000000000000	12.60971400000000	0.00000000000000	0.00000000000000	2.62029900000000	0.00000000000000	
20.10159000000000	-53.30308000000000	808.05681800000002	38.19226500000000	0.06273700000000	0.00000000000000	0.07710300000000	-4.17179400000000	33.06719900000000	5.89320400000000	0.29042400000000	0.00000000000000	-0.08940000000000	0.00000000000000	12.62193500000000	0.00000000000000	0.00000000000000	3.19756800000000	0.00000000000000	
20.10325800000000	-54.42296600000000	806.60157800000002	38.20093300000000	0.06165300000000	0.00000000000000	0.07705500000000	-4.73967200000000	39.58070700000000	6.90116500000000	0.29397400000000	0.00000000000000	-0.08958900000000	0.00000000000000	12.63580900000000	0.00000000000000	0.00000000000000	3.78774000000000	0.00000000000000	
20.10492300000000	-55.55841500000000	805.00067000000001	38.19516000000000	0.06057200000000	0.00000000000000	0.07700500000000	-5.24683500000000	46.24652300000000	7.88704900000000	0.29720100000000	0.00000000000000	-0.08976400000000	0.00000000000000	12.65130700000000	0.00000000000000	0.00000000000000	4.37677600000000	0.00000000000000	
20.10659800000000	-56.70831600000000	803.24945000000002	38.17425600000000	0.05949600000000	0.00000000000000	0.07695500000000	-5.67514500000000	52.95615500000000	8.82830000000000	0.30015500000000	0.00000000000000	-0.08992800000000	0.00000000000000	12.66839000000000	0.00000000000000	0.00000000000000	4.95204100000000	0.00000000000000	
20.10826300000000	-57.87144200000000	801.34327900000005	38.13755000000000	0.05842300000000	0.00000000000000	0.07690300000000	-6.01077000000000	59.61928900000000	9.70672000000000	0.30287900000000	0.00000000000000	-0.09008300000000	0.00000000000000	12.68700400000000	0.00000000000000	0.00000000000000	5.50306700000000	0.00000000000000	
20.10992400000000	-59.04644700000000	799.27753700000005	38.08439500000000	0.05735600000000	0.00000000000000	0.07685000000000	-6.24464200000000	66.16832100000001	10.50922500000000	0.30540400000000	0.00000000000000	-0.09023100000000	0.00000000000000	12.70708300000000	0.00000000000000	0.00000000000000	6.02204300000000	0.00000000000000	
20.11159200000000	-60.23187100000000	797.04763400000002	38.01416500000000	0.05629400000000	0.00000000000000	0.07679600000000	-6.37246400000000	72.56032600000000	11.22805200000000	0.30775700000000	0.00000000000000	-0.09037300000000	0.00000000000000	12.72854700000000	0.00000000000000	0.00000000000000	6.50400300000000	0.00000000000000	
20.11325700000000	-61.42613800000000	794.64902600000005	37.92626200000000	0.05523800000000	0.00000000000000	0.07674000000000	-6.39432200000000	78.77667400000000	11.86050300000000	0.30995900000000	0.00000000000000	-0.09051000000000	0.00000000000000	12.75130000000000	0.00000000000000	0.00000000000000	6.94675400000000	0.00000000000000	
20.11492400000000	-62.62755600000000	792.07722899999999	37.82011600000000	0.05418800000000	0.00000000000000	0.07668300000000	-6.31401400000000	84.82070899999999	12.40831400000000	0.31202900000000	0.00000000000000	-0.09064400000000	0.00000000000000	12.77523600000000	0.00000000000000	0.00000000000000	7.35057900000000	0.00000000000000	
20.11659700000000	-63.83432400000000	789.32783199999994	37.69518900000000	0.05314500000000	0.00000000000000	0.07662500000000	-6.13818400000000	90.71403300000000	12.87676300000000	0.31398100000000	0.00000000000000	-0.09077400000000	0.00000000000000	12.80022900000000	0.00000000000000	0.00000000000000	7.71779000000000	0.00000000000000	
20.11825900000000	-65.04452999999999	786.39651200000003	37.55097700000000	0.05211000000000	0.00000000000000	0.07656500000000	-5.87538000000000	96.49193400000000	13.27364700000000	0.31582700000000	0.00000000000000	-0.09090300000000	0.00000000000000	12.82614500000000	0.00000000000000	0.00000000000000	8.05219100000000	0.00000000000000	
20.11992900000000	-66.25615500000001	783.27905299999998	37.38701300000000	0.05108200000000	0.00000000000000	0.07650400000000	-5.53512500000000	102.19849600000001	13.60822900000000	0.31757800000000	0.00000000000000	-0.09102900000000	0.00000000000000	12.85283100000000	0.00000000000000	0.00000000000000	8.35850300000000	0.00000000000000	
20.12159800000000	-67.46707700000000	779.97135700000001	37.20286600000000	0.05006100000000	0.00000000000000	0.07644100000000	-5.12706600000000	107.88183300000000	13.89024300000000	0.31924100000000	0.00000000000000	-0.09115400000000	0.00000000000000	12.88012300000000	0.00000000000000	0.00000000000000	8.64181500000000	0.00000000000000	
20.12325700000000	-68.67507700000000	776.46946300000002	36.99814900000000	0.04904900000000	0.00000000000000	0.07637700000000	-4.66026700000000	113.58982300000000	14.12903800000000	0.32082300000000	0.00000000000000	-0.09127900000000	0.00000000000000	12.90784100000000	0.00000000000000	0.00000000000000	8.90710100000000	0.00000000000000	
20.12493100000000	-69.87783800000000	772.76956299999995	36.77251500000000	0.04804600000000	0.00000000000000	0.07631200000000	-4.14266900000000	119.36656800000000	14.33289100000000	0.32233200000000	0.00000000000000	-0.09140400000000	0.00000000000000	12.93579300000000	0.00000000000000	0.00000000000000	9.15881800000000	0.00000000000000	
20.12659300000000	-71.07295600000000	768.86801900000000	36.52566500000000	0.04705100000000	0.00000000000000	0.07624500000000	-3.58073400000000	125.24975400000000	14.50852800000000	0.32377000000000	0.00000000000000	-0.09152800000000	0.00000000000000	12.96377400000000	0.00000000000000	0.00000000000000	9.40062000000000	0.00000000000000	
20.12826100000000	-72.25794200000000	764.76138200000003	36.25734500000000	0.04606600000000	0.00000000000000	0.07617700000000	-2.97926400000000	131.26893300000000	14.66083600000000	0.32514300000000	0.00000000000000	-0.09165300000000	0.00000000000000	12.99156300000000	0.00000000000000	0.00000000000000	9.63517300000000	0.00000000000000	
20.12992900000000	-73.43022900000000	760.44640800000002	35.96735100000000	0.04508900000000	0.00000000000000	0.07610800000000	-2.34138500000000	137.44469699999999	14.79276700000000	0.32645300000000	0.00000000000000	-0.09177800000000	0.00000000000000	13.01893200000000	0.00000000000000	0.00000000000000	9.86408400000000	0.00000000000000	
20.13159400000000	-74.58717900000001	755.92007699999999	35.65552900000000	0.04412200000000	0.00000000000000	0.07603700000000	-1.66865800000000	143.78865300000001	14.90540900000000	0.32770400000000	0.00000000000000	-0.09190500000000	0.00000000000000	13.04563600000000	0.00000000000000	0.00000000000000	10.08791300000000	0.00000000000000	
20.13326300000000	-75.72608700000001	751.17961400000002	35.32177800000000	0.04316300000000	0.00000000000000	0.07596500000000	-0.96129400000000	150.30404400000000	14.99817200000000	0.32889700000000	0.00000000000000	-0.09203300000000	0.00000000000000	13.07142400000000	0.00000000000000	0.00000000000000	10.30626800000000	0.00000000000000	
20.13492700000000	-76.84419300000000	746.22250399999996	34.96604900000000	0.04221400000000	0.00000000000000	0.07589100000000	-0.21843300000000	156.98685900000001	15.06907500000000	0.33003500000000	0.00000000000000	-0.09216200000000	0.00000000000000	13.09603000000000	0.00000000000000	0.00000000000000	10.51794600000000	0.00000000000000	
20.13659500000000	-77.93868399999999	741.04651500000000	34.58834900000000	0.04127400000000	0.00000000000000	0.07581600000000	0.56154400000000	163.82725400000001	15.11507400000000	0.33111800000000	0.00000000000000	-0.09229200000000	0.00000000000000	13.11918100000000	0.00000000000000	0.00000000000000	10.72111500000000	0.00000000000000	
